   <svg id="fi_9479083" enable-background="new 0 0 512 512" height="512" viewBox="0 0 512 512"
                    width="512" xmlns="http://www.w3.org/2000/svg">
                    <g>
                        <path
                            d="m447.54 460.601-28.948-318.425c-.702-7.727-7.181-13.642-14.938-13.642h-68.387v-49.267c0-43.708-35.559-79.267-79.267-79.267s-79.267 35.559-79.267 79.267v49.267h-68.387c-7.758 0-14.236 5.916-14.938 13.642l-28.948 318.426c-1.195 13.157 3.229 26.297 12.135 36.053 8.904 9.752 21.59 15.345 34.805 15.345h289.2c13.214 0 25.9-5.593 34.806-15.345 8.906-9.756 13.329-22.896 12.134-36.054zm-240.807-381.334c0-27.166 22.101-49.267 49.267-49.267s49.267 22.101 49.267 49.267v49.267h-98.533v-49.267zm206.518 397.159c-3.234 3.542-7.846 5.574-12.651 5.574h-289.2c-4.806 0-9.417-2.032-12.65-5.573-3.239-3.547-4.847-8.326-4.413-13.11l27.708-304.783h54.688v49.266c0 8.284 6.716 15 15 15s15-6.716 15-15v-49.267h98.533v49.267c0 8.284 6.716 15 15 15s15-6.716 15-15v-49.267h54.688l27.708 304.782c.436 4.786-1.173 9.564-4.411 13.111z">
                        </path>
                    </g>
                </svg>